<svg width="30" height="31" viewBox="0 0 30 31" fill="none" xmlns="http://www.w3.org/2000/svg">
<path d="M21.0277 1.01172H21.5277C25.6574 1.01172 29.0179 4.3722 29.0179 8.50194V22.0396C29.0179 26.1691 25.6574 29.5296 21.5279 29.5296H7.99022C3.86047 29.5296 0.5 26.1691 0.5 22.0396V8.50194C0.5 4.3722 3.86048 1.01172 7.99022 1.01172H21.0277ZM21.5277 28.7991C25.2555 28.7991 28.2874 25.7672 28.2874 22.0396V8.50194C28.2874 4.77412 25.2555 1.74218 21.5279 1.74218H7.99022C4.26239 1.74218 1.23046 4.7741 1.23046 8.50194V22.0396C1.23046 25.7672 4.2624 28.7991 7.99022 28.7991H21.5277Z" fill="white" stroke="white"/>
<path d="M7.18787 15.2708C7.18787 11.0964 10.5846 7.69971 14.7589 7.69971C18.9333 7.69971 22.33 11.0964 22.33 15.2708C22.33 19.4451 18.9333 22.8419 14.7589 22.8419C10.5846 22.8419 7.18787 19.4451 7.18787 15.2708ZM7.91833 15.2708C7.91833 19.0432 10.9867 22.1114 14.7589 22.1114C18.5314 22.1114 21.5995 19.0432 21.5995 15.2708C21.5995 11.4986 18.5314 8.43017 14.7589 8.43017C10.9867 8.43017 7.91833 11.4986 7.91833 15.2708Z" fill="white" stroke="white"/>
<path d="M21.1381 6.71791C21.1381 5.67906 21.984 4.83301 23.023 4.83301C24.0621 4.83301 24.9082 5.67893 24.9082 6.71791C24.9082 7.75696 24.0621 8.60305 23.023 8.60305C21.984 8.60305 21.1381 7.75702 21.1381 6.71791ZM21.8686 6.71791C21.8686 7.35483 22.3861 7.87236 23.023 7.87236C23.6601 7.87236 24.1777 7.35495 24.1777 6.71791C24.1777 6.08055 23.6599 5.56347 23.023 5.56347C22.3862 5.56347 21.8686 6.08066 21.8686 6.71791Z" fill="white" stroke="white"/>
</svg>
