<svg width="31" height="22" viewBox="0 0 31 22" fill="none" xmlns="http://www.w3.org/2000/svg">
<path d="M12.7834 19.2229L13.0535 19.3997L15.9923 21.3231L15.9933 21.3237C16.1666 21.4377 16.3773 21.5 16.5921 21.5C16.6638 21.5 16.736 21.4929 16.8071 21.4788C17.0905 21.422 17.3375 21.2544 17.4864 21.0274L29.9348 1.325L29.9362 1.32288C30.0589 1.13077 30.0434 0.886216 29.8901 0.70677L12.7834 19.2229ZM12.7834 19.2229L12.5111 19.3963M12.7834 19.2229L12.5111 19.3963M12.5111 19.3963L9.52374 21.2983C9.52357 21.2984 9.5234 21.2985 9.52324 21.2986C9.2755 21.4551 8.95826 21.469 8.69606 21.3338L12.5111 19.3963ZM16.2526 20.6455L16.6777 20.9237L16.9491 20.4942L28.2955 2.53644L29.0584 1.32889L27.7089 1.79698L2.36786 10.5867L1.40706 10.92L2.25768 11.4773L5.5847 13.6573L5.82655 13.8157L6.08453 13.6852L20.1928 6.5442L20.1928 6.54418C20.552 6.36231 20.9725 6.47844 21.1781 6.79067C21.3764 7.09216 21.3091 7.47715 20.9975 7.70052C20.9975 7.70053 20.9975 7.70054 20.9975 7.70055L9.25474 16.1166L9.04601 16.2662V16.523V19.851V20.7621L9.81454 20.2728L12.3659 18.6484L12.366 18.6483C12.4928 18.5676 12.6379 18.5269 12.7835 18.5269C12.9327 18.5269 13.0808 18.5694 13.2088 18.6533L13.2092 18.6536L16.2526 20.6455Z" fill="white" stroke="white"/>
</svg>
