<svg width="31" height="22" viewBox="0 0 31 22" fill="none" xmlns="http://www.w3.org/2000/svg">
  <path d="M29.2197 0.536314L29.2223 0.535418C29.4651 0.449711 29.7338 0.524087 29.8903 0.706927C30.0434 0.88636 30.0589 1.13083 29.9362 1.32288L29.9348 1.325L17.4864 21.0274C17.3375 21.2543 17.0906 21.4219 16.8074 21.4787C16.7362 21.4929 16.6639 21.5 16.5921 21.5C16.3773 21.5 16.1666 21.4377 15.9933 21.3237L15.9923 21.3231L13.0535 19.3997L12.7834 19.2229L12.5111 19.3963L9.52374 21.2983C9.52357 21.2984 9.5234 21.2985 9.52324 21.2986C9.2755 21.4551 8.95826 21.469 8.69606 21.3338C8.43569 21.1991 8.28728 20.9488 8.28728 20.6887V16.2738C8.28728 16.0664 8.39179 15.8585 8.57728 15.7255C8.57732 15.7254 8.57735 15.7254 8.57738 15.7254L15.2274 10.9593L14.7104 10.1068L6.17767 14.4257L6.17752 14.4257C5.92834 14.552 5.62906 14.535 5.39834 14.3837L5.39828 14.3837L1.46472 11.8063L1.46269 11.805C1.14195 11.597 0.979777 11.2446 1.02563 10.8864C1.0721 10.5261 1.32243 10.2136 1.70147 10.0813C1.70154 10.0813 1.70161 10.0813 1.70168 10.0812L29.2197 0.536314ZM16.2526 20.6455L16.6777 20.9237L16.9491 20.4942L28.2955 2.53644L29.0584 1.32889L27.7089 1.79698L2.36786 10.5867L1.40706 10.92L2.25768 11.4773L5.5847 13.6573L5.82655 13.8157L6.08453 13.6852L20.1928 6.5442L20.1928 6.54418C20.552 6.36231 20.9725 6.47844 21.1781 6.79067C21.3764 7.09217 21.3091 7.47718 20.9975 7.70055L9.25474 16.1166L9.04601 16.2662V16.523V19.851V20.7621L9.81454 20.2728L12.3659 18.6484L12.366 18.6483C12.4928 18.5676 12.6379 18.5269 12.7835 18.5269C12.9327 18.5269 13.0809 18.5694 13.2088 18.6533L13.2092 18.6536L16.2526 20.6455Z" fill="white" stroke="white"/>
</svg>
