<svg width="31" height="30" viewBox="0 0 31 30" fill="none" xmlns="http://www.w3.org/2000/svg">
    <path d="M10.4339 1.60818L10.4338 1.60819C8.75111 2.30523 7.24418 3.31262 5.953 4.60379C3.34321 7.21359 1.90705 10.6811 1.90705 14.372C1.90705 16.5726 2.4382 18.7599 3.44397 20.7078L3.54276 20.8991L3.47162 21.1024L1.06558 27.9759C0.959339 28.2797 1.03356 28.605 1.26099 28.8323L1.26126 28.8326C1.4215 28.9929 1.62881 29.0756 1.84057 29.0756C1.93184 29.0756 2.0251 29.0603 2.11754 29.0279L8.99114 26.6221L9.19439 26.551L9.38572 26.6498C11.3336 27.6555 13.5209 28.1867 15.7215 28.1867C19.4124 28.1867 22.8797 26.7503 25.4897 24.1405C28.0995 21.5307 29.5359 18.0632 29.5359 14.3723C29.5359 10.6811 28.0997 7.2136 25.4897 4.60381L25.4897 4.60379C22.8797 1.99376 19.4128 0.557617 15.7215 0.557617H15.7215H15.7215H15.7214H15.7214H15.7214H15.7214H15.7214H15.7214H15.7214H15.7214H15.7214H15.7214H15.7214H15.7214H15.7213H15.7213H15.7213H15.7213H15.7213H15.7213H15.7213H15.7213H15.7213H15.7213H15.7213H15.7213H15.7212H15.7212H15.7212H15.7212H15.7212H15.7212H15.7212H15.7212H15.7212H15.7212H15.7212H15.7212H15.7211H15.7211H15.7211H15.7211H15.7211H15.7211H15.7211H15.7211H15.7211H15.7211H15.7211H15.721H15.721H15.721H15.721H15.721H15.721H15.721H15.721H15.721H15.721H15.721H15.7209H15.7209H15.7209H15.7209H15.7209H15.7209H15.7209H15.7209H15.7209H15.7209H15.7208H15.7208H15.7208H15.7208H15.7208H15.7208H15.7208H15.7208H15.7208H15.7208H15.7207H15.7207H15.7207H15.7207H15.7207H15.7207H15.7207H15.7207H15.7207H15.7207H15.7206H15.7206H15.7206H15.7206H15.7206H15.7206H15.7206H15.7206H15.7206H15.7206H15.7206H15.7205H15.7205H15.7205H15.7205H15.7205H15.7205H15.7205H15.7205H15.7205H15.7205H15.7205H15.7204H15.7204H15.7204H15.7204H15.7204H15.7204H15.7204H15.7204H15.7204H15.7204H15.7204H15.7204H15.7203H15.7203H15.7203H15.7203H15.7203H15.7203H15.7203H15.7203H15.7203H15.7203H15.7203H15.7203H15.7202H15.7202H15.7202H15.7202H15.7202H15.7202H15.7202H15.7202H15.7202L10.4339 1.60818ZM10.4339 1.60818C12.1163 0.911157 13.8944 0.557842 15.7201 0.557617L10.4339 1.60818ZM9.57945 25.9257C11.4605 26.9268 13.5838 27.4553 15.7215 27.4553C19.215 27.4553 22.5022 26.094 24.9726 23.6234C27.4432 21.1531 28.8047 17.8658 28.8047 14.372C28.8047 10.8783 27.4432 7.59123 24.9726 5.12088C22.5022 2.65031 19.2152 1.28876 15.7215 1.28876H15.7203H15.7203C12.227 1.28923 8.94022 2.65078 6.47011 5.1209C3.99976 7.59125 2.6382 10.8785 2.6382 14.372C2.6382 16.5099 3.16689 18.6332 4.1678 20.5137C4.27704 20.7191 4.29536 20.9618 4.21991 21.1775L2.03412 27.4223L1.69105 28.4024L2.67122 28.0594L8.91612 25.8738L8.9162 25.8738C9.13138 25.7984 9.37392 25.8165 9.57945 25.9257ZM9.57945 25.9257L9.81396 25.485L9.57967 25.9258C9.5796 25.9257 9.57952 25.9257 9.57945 25.9257Z" fill="none" stroke="white"/>
    <path d="M8.89529 12.7724C8.11013 10.9403 8.24998 9.68194 8.91426 9.01766L10.4668 7.4651C10.9301 7.00187 11.685 7.00187 12.1482 7.4651L14.089 9.40591L14.0891 9.40597C14.5525 9.86919 14.5525 10.624 14.0891 11.0873L14.089 11.0873L13.3688 11.8075L13.1044 12.072L13.2834 12.4004C14.304 14.2731 15.8206 15.7896 17.6933 16.8101L18.0217 16.989L18.2861 16.7246L19.0063 16.0044C19.4696 15.5412 20.2245 15.5412 20.6877 16.0044C20.6877 16.0044 20.6877 16.0044 20.6877 16.0044L22.6285 17.9454L22.6287 17.9455C22.8539 18.1706 22.9769 18.4674 22.9769 18.7861C22.9769 19.0979 22.859 19.3891 22.6425 19.6126L22.6285 19.6266L21.076 21.1794C21.076 21.1794 21.076 21.1794 21.076 21.1794C20.7218 21.5335 20.2163 21.7338 19.541 21.7338C18.9234 21.7338 18.1762 21.5647 17.3213 21.1984C15.7558 20.5274 14.0064 19.2848 12.4076 17.686C10.8089 16.0872 9.56625 14.3379 8.89529 12.7724ZM8.89529 12.7724L8.43572 12.9693M8.89529 12.7724L8.43572 12.9693M8.43572 12.9693C9.1379 14.6077 10.4229 16.4084 12.0541 18.0396C13.6852 19.6707 15.486 20.9557 17.1243 21.6579L17.9326 16.371C16.1442 15.3966 14.6971 13.9494 13.7224 12.1611L14.4426 11.4409C15.1013 10.7824 15.1013 9.71085 14.4426 9.05236L12.5018 7.11155C11.8433 6.45305 10.7718 6.45305 10.1133 7.11155L8.56071 8.66411C7.67137 9.55344 7.62701 11.0823 8.43572 12.9693ZM17.6095 20.5265L17.6095 20.5264C16.0942 19.877 14.4346 18.6788 12.9247 17.1689C11.4148 15.659 10.2169 13.9997 9.56745 12.4844C9.25952 11.766 9.11489 11.1698 9.09204 10.6954C9.07031 10.2441 9.15646 9.80967 9.43136 9.53476L10.9542 8.01193L11.3078 7.65836L11.6613 8.01195L13.5422 9.89308L13.8957 10.2466L13.5422 10.6001L12.6408 11.5018L12.6407 11.5019C12.3858 11.7568 12.3253 12.1406 12.488 12.4595L12.488 12.4595C13.6253 14.6897 15.404 16.4683 17.6341 17.6056L17.6095 20.5265ZM17.6095 20.5265C18.328 20.8343 18.9241 20.9788 19.3984 21.0016C19.8496 21.0233 20.284 20.9372 20.5589 20.6623L17.6095 20.5265Z" fill="none" stroke="white"/>
</svg>
